<?xml version="1.0" standalone="no"?><!DOCTYPE svg PUBLIC "-//W3C//DTD SVG 1.1//EN" "http://www.w3.org/Graphics/SVG/1.1/DTD/svg11.dtd"><svg t="1723970548857" class="icon" viewBox="0 0 1024 1024" version="1.1" xmlns="http://www.w3.org/2000/svg" p-id="69352" xmlns:xlink="http://www.w3.org/1999/xlink" width="200" height="200"><path d="M331.5 768.8c3.1 1.5 6 3.4 8.6 6 0.5 0.5 0.9 1.1 1.4 1.7 50.6 37.2 113.1 59.2 180.5 59.2 167.3 0 303.5-135 305.7-301.7-26.8 84.9-117 169.2-240.1 206.4C463.9 777.7 345 768.9 275.1 710c16.1 22 35.1 41.8 56.4 58.8z" fill="#FFD524" p-id="69353"></path><path d="M301.4 232.8c-2.1 1.6-4.2 3.1-6.2 4.7-14 10.9-16.5 31-5.6 44.9 6.3 8.1 15.8 12.4 25.3 12.4 6.9 0 13.8-2.2 19.6-6.7 1.7-1.3 3.4-2.6 5.2-3.9 14.2-10.6 17.1-30.6 6.6-44.8s-30.7-17.2-44.9-6.6zM757.2 145.4c22.9-22.9 60.1-22.9 83 0s22.9 60.1 0 83c-12.5 12.5-12.5 32.8 0 45.3 6.3 6.3 14.4 9.4 22.6 9.4s16.4-3.1 22.6-9.4c47.8-47.8 47.8-125.7 0-173.5s-125.7-47.8-173.5 0c-12.5 12.5-12.5 32.8 0 45.3 12.5 12.4 32.8 12.4 45.3-0.1zM184.4 273.6c12.5-12.5 12.5-32.8 0-45.3-22.9-22.9-22.9-60.1 0-83s60.1-22.9 83 0c12.5 12.5 32.8 12.5 45.3 0s12.5-32.8 0-45.3c-47.8-47.8-125.7-47.8-173.5 0s-47.8 125.7 0 173.5c6.3 6.3 14.4 9.4 22.6 9.4 8.2 0.1 16.4-3 22.6-9.3z" fill="#333333" p-id="69354"></path><path d="M777.5 796.8c70.4-67.4 114.4-162.1 114.4-267 0-204-165.9-369.9-369.9-369.9-40.8 0-81 6.6-119.4 19.7-16.7 5.7-25.7 23.9-20 40.6s23.9 25.7 40.6 20c31.7-10.8 64.9-16.3 98.7-16.3 168.6 0 305.8 137.2 305.8 305.8 0 1.4-0.1 2.7-0.1 4.1-2.1 166.8-138.4 301.8-305.6 301.8-67.5 0-129.9-22-180.5-59.2-0.5-0.5-0.8-1.2-1.4-1.7-2.6-2.6-5.5-4.5-8.6-6-21.3-17-40.3-36.8-56.4-58.8-37-50.6-59-112.9-59-180.3 0-60.5 17.6-119 51-169.1 9.8-14.7 5.8-34.6-8.9-44.4-14.7-9.8-34.6-5.8-44.4 8.9-40.4 60.7-61.7 131.4-61.7 204.6 0 106.5 45.3 202.6 117.6 270.1L167.4 902.1c-12.5 12.5-12.5 32.8 0 45.3 6.3 6.3 14.4 9.4 22.6 9.4 8.2 0 16.4-3.1 22.6-9.4l107.8-107.8c58 37.9 127.2 60 201.5 60 75.9 0 146.6-23 205.4-62.4l111.4 111.4c6.3 6.3 14.4 9.4 22.6 9.4s16.4-3.1 22.6-9.4c12.5-12.5 12.5-32.8 0-45.3L777.5 796.8z" fill="#333333" p-id="69355"></path><path d="M511.9 321.2c-17.7 0-32 14.3-32 32v216.5c0 17.7 14.3 32 32 32h164.4c17.7 0 32-14.3 32-32s-14.3-32-32-32H543.9V353.2c0-17.7-14.4-32-32-32z" fill="#333333" p-id="69356"></path></svg>