<?xml version="1.0" standalone="no"?><!DOCTYPE svg PUBLIC "-//W3C//DTD SVG 1.1//EN" "http://www.w3.org/Graphics/SVG/1.1/DTD/svg11.dtd"><svg t="1723969679203" class="icon" viewBox="0 0 1024 1024" version="1.1" xmlns="http://www.w3.org/2000/svg" p-id="54638" xmlns:xlink="http://www.w3.org/1999/xlink" width="200" height="200"><path d="M283.52 114.923c-67.532 0-123.827 56.325-123.827 123.827v544.074c0 67.531 56.325 120.062 120.062 120.062h469.043c67.53 0 120.062-56.295 120.062-120.062V238.75c0-67.531-56.267-120.062-120.062-120.062H283.52v-3.765z m465.278 844.288H283.52c-101.268 0-180.064-78.796-180.064-180.152V238.75c-0.03-101.326 78.767-180.122 180.035-180.122h469.013c97.561 0 176.358 78.796 176.358 180.122v544.074c0 97.562-78.797 176.358-180.064 176.358z" fill="#666666" p-id="54639"></path><path d="M516.452 568.73c8 0 20.016 4.048 28.016 8.001l64.033 40.032v-192.13H428.386v192.13l64.065-40.032c3.984-3.984 16-8 23.97-8M404.353 700.813h-7.969c-8-4.016-20.016-8-24.032-16-3.984-8.032-8-12.017-8-20.017V368.6h300.181v292.18c0 20.017-16 36.017-40.032 36.017a30.413 30.413 0 0 1-19.985-8l-88.097-56.033-92.018 60.08a30.725 30.725 0 0 1-20.016 7.969" fill="#FF9933" p-id="54640"></path><path d="M658.765 208.75h93.797c15.03 0 26.266 11.264 26.266 30.03 0 15-11.236 30-30.001 30H655c-15 0-30.001-11.265-30.001-30 3.735-18.766 15-30.06 33.765-30.06zM103.397 415.136H928.92v-56.325H103.426v56.325z" fill="#FF9933" p-id="54641"></path></svg>