<?xml version="1.0" standalone="no"?><!DOCTYPE svg PUBLIC "-//W3C//DTD SVG 1.1//EN" "http://www.w3.org/Graphics/SVG/1.1/DTD/svg11.dtd"><svg t="1723970562011" class="icon" viewBox="0 0 1024 1024" version="1.1" xmlns="http://www.w3.org/2000/svg" p-id="71578" xmlns:xlink="http://www.w3.org/1999/xlink" width="200" height="200"><path d="M638.88 297.76c3.36 1.28 10.08-9.28 10.08-12s-14.72-11.36-17.92-23.36 9.28-19.36 11.36-21.28-9.6-9.92-11.36-8.64a36.48 36.48 0 0 0-14.72 30.08 57.6 57.6 0 0 0 22.56 35.2z m-149.44 180a41.92 41.92 0 0 0-29.28 16 59.52 59.52 0 0 0-9.28 32 19.04 19.04 0 0 0 12.64 3.36c3.36 0 2.08-17.28 10.08-25.28s20-9.92 21.28-12-0.64-14.56-5.44-14.08z m-16-37.28c-50.72 25.28-64 60-62.72 116.64s141.28 94.08 176-3.36c40-113.92-81.92-129.44-113.92-113.44z m66.72 74.72c2.08 2.08 24 18.72 24 22.72a96 96 0 0 1-6.72 18.72 355.04 355.04 0 0 0-32-32c-2.72 0-9.92 7.36-9.92 7.36l35.36 36.64-11.36 8s-35.36-40.64-37.28-40.64-9.28 2.72-8 5.28A450.56 450.56 0 0 1 528 584.32a39.2 39.2 0 0 1-9.28 4.64s-35.36-38.72-37.28-38.72-12.64 5.28-10.72 8 28.8 33.76 28.8 33.76a76.32 76.32 0 0 1-53.28-29.28c-19.36-27.36-13.92-75.36 38.08-100.64 20.16-9.76 51.36 4 65.92 14.08s16 46.08 16 46.08-17.92-17.28-20.64-16-8.16 6.88-6.08 8.8zM944 306.4c19.36-78.72-7.36-108.64-80-109.92a282.72 282.72 0 0 0-135.36 37.28s1.28 2.08-20.64-24.64a81.6 81.6 0 0 0-61.28-24.64 144 144 0 0 0-13.92-62.72c-16-36.64-112-80-174.72-42.72s-89.28 158.08-92 157.28c-145.28-37.92-249.92-9.92-277.92 52.8s28.64 115.36 28.64 115.36a62.08 62.08 0 0 0 4 72c28 38.72 80 27.36 80 27.36L240 549.76s-109.28 112-137.28 160-45.92 119.36 3.36 142.72a122.88 122.88 0 0 0 99.36-1.92s56.64 64 108.64 30.72a75.2 75.2 0 0 0 33.28-86.72l16-7.36s28 151.36 128 171.36 136.64-164 136.64-164a937.28 937.28 0 0 0 136 34.72c98.88 18.72 134.24-60.16 113.44-157.28a304 304 0 0 0-97.92-157.92S924.16 385.12 944 306.4zM205.44 462.4s-16-32-19.36-32-9.28 4-8 6.72a208 208 0 0 1 17.28 30.72 48 48 0 0 1-11.36 6.08 179.36 179.36 0 0 0-16-28.64c-2.72 0-11.36 2.72-9.28 5.28a99.52 99.52 0 0 1 11.36 25.28 37.6 37.6 0 0 1-24.64-29.44c-1.28-18.72 2.72-36.64 22.72-42.72 23.2-7.04 46.72 9.28 48 24.64a77.44 77.44 0 0 1-10.72 34.08zM307.52 848a205.12 205.12 0 0 0-21.28-32c-3.36 0-11.36 5.28-8.64 8s23.36 29.28 21.28 32-11.36 4-11.36 4a278.4 278.4 0 0 0-24-38.72c-3.36 0-12.64 1.28-10.72 4.64a248.64 248.64 0 0 1 17.28 36.64c-1.92 0-32-5.92-32-33.28s7.36-41.92 27.36-50.72 40.64-3.36 46.08 20.64a100.64 100.64 0 0 1-4 48.8z m32-78.72s-13.92-29.92-60.64-21.92a109.12 109.12 0 0 0-72 52.64 86.88 86.88 0 0 0-9.28 29.28s-53.28 16-75.36-8.64-7.36-85.92 28.64-136.64a882.4 882.4 0 0 1 110.72-116 571.52 571.52 0 0 0 48 37.28c22.08 14.72 30.72 19.36 30.72 19.36a517.28 517.28 0 0 0 4 80c5.28 28.64 8.64 58.08 8.64 58.08z m-5.28-221.92c2.08 21.28 2.72 36 2.72 36s-21.28-13.92-29.28-20a108.96 108.96 0 0 1-16-17.28 165.6 165.6 0 0 1 43.36-38.72 224 224 0 0 0-0.8 40.32z m8-161.92C338.24 443.04 336 464 336 464a342.4 342.4 0 0 0-69.28 64A117.76 117.76 0 0 1 224 489.12s37.28-44.64 16-85.92-60.64-29.28-73.92-25.92a96 96 0 0 0-26.72 12.64s-45.92-58.72-8-94.72 105.28-46.72 163.36-40.64 65.28 16 65.28 16a839.36 839.36 0 0 0-17.76 115.2zM628.8 213.76c30.88-10.24 80 16 64 65.28a52.96 52.96 0 0 1-93.28 16 54.24 54.24 0 0 1 29.28-81.28z m42.08 246.08a342.08 342.08 0 0 1 42.08 29.28c18.72 14.08 23.36 18.72 22.72 21.28a455.04 455.04 0 0 1-49.92 48 252.16 252.16 0 0 1-35.36 24s10.72-45.28 16-72.64a402.08 402.08 0 0 0 4.48-50.08zM640 345.76L638.24 400l-85.28-55.36 30.08-20a92 92 0 0 0 26.08 16 128 128 0 0 0 30.88 5.12zM456.8 118.4c33.28-30.72 82.08-34.72 126.72-1.92s35.36 69.28 35.36 69.28-44.64 16-51.36 50.72a147.2 147.2 0 0 0 1.28 62.72L528 322.4a630.24 630.24 0 0 0-70.72-44c-36-18.72-57.92-27.36-57.92-27.36s24.16-101.92 57.44-132.64zM377.44 352a423.2 423.2 0 0 1 13.28-67.36 359.52 359.52 0 0 1 62.08 28 144 144 0 0 1 44 30.08s-39.36 26.72-72.64 52.64S368 437.76 368 437.76s4.16-44 9.44-85.76z m3.36 355.36a212 212 0 0 1 0-40.64l42.08 30.72c17.28 12.64 30.72 22.08 30.72 22.08s-29.28 14.72-44 21.28a176 176 0 0 1-19.36 8S384 720 380.8 707.04z m157.28 208c-39.36 26.08-76.64 11.36-101.92-38.72a363.52 363.52 0 0 1-37.28-102.72 284.48 284.48 0 0 1 44-18.72 297.44 297.44 0 0 0 38.56-19.2A209.92 209.92 0 0 0 544 771.68l50.72 19.36s-17.28 97.44-56.48 123.36z m64-194.72c-4 22.72-7.36 34.72-7.36 34.72l-48-16a126.72 126.72 0 0 1-33.28-21.28 420 420 0 0 0 50.08-29.28c24.64-16 46.08-32 46.08-32s-2.72 40.32-6.72 63.2z m12-104.64s-121.92 90.08-128 87.36-116.64-84.32-118.08-87.68-4-137.92 0-141.92 135.36-96 155.36-105.92a1168 1168 0 0 1 114.72 73.28c0.16 4.64-23.2 173.92-23.2 173.92z m228.64 66.72c10.72 76 18.08 104.64-35.36 112s-176-29.92-176-29.92a837.92 837.92 0 0 0 13.28-88c2.08-32 4-53.92 4-53.92s42.88-30.88 68.16-52.48 40-35.36 40-35.36 76 70.72 86.72 146.72z m-80-192a691.52 691.52 0 0 0-56-44L672 422.4l6.08-81.92A114.4 114.4 0 0 0 718.24 304a117.6 117.6 0 0 0 11.36-40s144-71.36 179.36-26.72-85.92 197.28-109.92 220.64-34.88 31.84-34.88 31.84z" fill="#1D1D1B" p-id="71579"></path></svg>