<?xml version="1.0" standalone="no"?><!DOCTYPE svg PUBLIC "-//W3C//DTD SVG 1.1//EN" "http://www.w3.org/Graphics/SVG/1.1/DTD/svg11.dtd"><svg t="1723972360544" class="icon" viewBox="0 0 1024 1024" version="1.1" xmlns="http://www.w3.org/2000/svg" p-id="4508" xmlns:xlink="http://www.w3.org/1999/xlink" width="200" height="200"><path d="M128 128h768c25.6 0 42.666667 17.066667 42.666667 42.666667v512c0 25.6-17.066667 42.666667-42.666667 42.666666H128c-25.6 0-42.666667-17.066667-42.666667-42.666666V170.666667c0-21.333333 17.066667-42.666667 42.666667-42.666667z" fill="#A02D67" p-id="4509"></path><path d="M128 128h768c25.6 0 42.666667 17.066667 42.666667 42.666667v512c0 25.6-17.066667 42.666667-42.666667 42.666666H128c-25.6 0-42.666667-17.066667-42.666667-42.666666V170.666667c0-21.333333 17.066667-42.666667 42.666667-42.666667z" fill="#A02D67" p-id="4510"></path><path d="M128 128h768c25.6 0 42.666667 17.066667 42.666667 42.666667v469.333333c0 25.6-17.066667 42.666667-42.666667 42.666667H128c-25.6 0-42.666667-17.066667-42.666667-42.666667V170.666667c0-21.333333 17.066667-42.666667 42.666667-42.666667z" fill="#D04C83" p-id="4511"></path><path d="M896 746.666667H128c-34.133333 0-64-29.866667-64-64V170.666667c0-34.133333 29.866667-64 64-64h768c34.133333 0 64 29.866667 64 64v512c0 34.133333-29.866667 64-64 64zM128 149.333333c-12.8 0-21.333333 8.533333-21.333333 21.333334v512c0 12.8 8.533333 21.333333 21.333333 21.333333h768c12.8 0 21.333333-8.533333 21.333333-21.333333V170.666667c0-12.8-8.533333-21.333333-21.333333-21.333334H128z" fill="#301196" p-id="4512"></path><path d="M913.066667 170.666667v469.333333c0 8.533333-8.533333 17.066667-17.066667 17.066667H128c-8.533333 0-17.066667-8.533333-17.066667-17.066667V170.666667c0-8.533333 8.533333-17.066667 17.066667-17.066667h768c8.533333 0 17.066667 8.533333 17.066667 17.066667z" fill="#D86097" p-id="4513"></path><path d="M213.333333 213.333333h597.333334c25.6 0 42.666667 17.066667 42.666666 42.666667v213.333333c0 25.6-17.066667 42.666667-42.666666 42.666667H213.333333c-25.6 0-42.666667-17.066667-42.666666-42.666667V256c0-21.333333 17.066667-42.666667 42.666666-42.666667z" fill="#D04C83" p-id="4514"></path><path d="M298.666667 256h426.666666v21.333333H298.666667z" fill="#D86097" p-id="4515"></path><path d="M661.333333 469.333333h-298.666666c-46.933333 0-85.333333-38.4-85.333334-85.333333s38.4-85.333333 85.333334-85.333333h298.666666c46.933333 0 85.333333 38.4 85.333334 85.333333s-38.4 85.333333-85.333334 85.333333z m-298.666666-128c-25.6 0-42.666667 17.066667-42.666667 42.666667s17.066667 42.666667 42.666667 42.666667h298.666666c25.6 0 42.666667-17.066667 42.666667-42.666667s-17.066667-42.666667-42.666667-42.666667h-298.666666z" fill="#723FDB" p-id="4516"></path><path d="M362.666667 320h298.666666c34.133333 0 64 29.866667 64 64s-29.866667 64-64 64h-298.666666C328.533333 448 298.666667 418.133333 298.666667 384s29.866667-64 64-64z" fill="#4F2AB5" p-id="4517"></path><path d="M661.333333 320c34.133333 0 64 29.866667 64 64s-29.866667 64-64 64S597.333333 418.133333 597.333333 384s29.866667-64 64-64z" fill="#6ED6AB" p-id="4518"></path><path d="M362.666667 320c34.133333 0 64 29.866667 64 64s-29.866667 64-64 64S298.666667 418.133333 298.666667 384s29.866667-64 64-64z" fill="#EDC35B" p-id="4519"></path><path d="M149.333333 170.666667c12.8 0 21.333333 8.533333 21.333334 21.333333s-8.533333 21.333333-21.333334 21.333333-21.333333-8.533333-21.333333-21.333333 8.533333-21.333333 21.333333-21.333333zM874.666667 170.666667c12.8 0 21.333333 8.533333 21.333333 21.333333s-8.533333 21.333333-21.333333 21.333333-21.333333-8.533333-21.333334-21.333333 8.533333-21.333333 21.333334-21.333333zM149.333333 597.333333c12.8 0 21.333333 8.533333 21.333334 21.333334s-8.533333 21.333333-21.333334 21.333333-21.333333-8.533333-21.333333-21.333333 8.533333-21.333333 21.333333-21.333334zM874.666667 597.333333c12.8 0 21.333333 8.533333 21.333333 21.333334s-8.533333 21.333333-21.333333 21.333333-21.333333-8.533333-21.333334-21.333333 8.533333-21.333333 21.333334-21.333334zM682.666667 554.666667H341.333333l-42.666666 128h426.666666z" fill="#A02D67" p-id="4520"></path><path d="M755.2 704H268.8l55.466667-170.666667h371.2l59.733333 170.666667z m-426.666667-42.666667h366.933334l-29.866667-85.333333H358.4l-29.866667 85.333333z" fill="#301196" p-id="4521"></path><path d="M298.666667 682.666667h426.666666v42.666666H298.666667z" fill="#301196" p-id="4522"></path><path d="M665.6 896H426.666667c-12.8 0-21.333333-8.533333-21.333334-21.333333s8.533333-21.333333 21.333334-21.333334h238.933333c12.8 0 21.333333-8.533333 21.333333-21.333333s-12.8-21.333333-21.333333-21.333333H384c-34.133333 0-64-29.866667-64-64V725.333333c0-12.8 8.533333-21.333333 21.333333-21.333333s21.333333 8.533333 21.333334 21.333333v21.333334c0 12.8 8.533333 21.333333 21.333333 21.333333h281.6c34.133333 0 64 29.866667 64 64s-29.866667 64-64 64z" fill="#301196" p-id="4523"></path></svg>