<?xml version="1.0" standalone="no"?><!DOCTYPE svg PUBLIC "-//W3C//DTD SVG 1.1//EN" "http://www.w3.org/Graphics/SVG/1.1/DTD/svg11.dtd"><svg t="1723968942408" class="icon" viewBox="0 0 1024 1024" version="1.1" xmlns="http://www.w3.org/2000/svg" p-id="7627" xmlns:xlink="http://www.w3.org/1999/xlink" width="200" height="200"><path d="M835.1 232.3c-0.8-1.4-1.7-2.8-2.9-4.2l-0.5 0.4C751.4 138.9 635.2 82.1 505.6 82.1c-241.7 0-438.3 196.6-438.3 438.4s196.6 438.3 438.3 438.3S944 762.2 944 520.5c0-110.4-41.3-211-108.9-288.2z m-52.4 18.1c-15.4 30.6-63.7 105.4-167.4 103C522.8 350.8 492 196 483.4 134.3c7.4-0.4 14.7-1.1 22.2-1.1 108.6 0 206.7 45 277.1 117.2zM118.3 520.5c0-120.8 55.6-228.8 142.5-299.8 35.3 35.2 93.2 103.5 96.3 157.1 0.9 16.5-3.6 30.2-13.9 41.7-24.7 27.7-49.8 43.6-71.8 57.6-53.8 34.1-85 63.3-31 154.4 33.5 56.5 45.2 92.1 38.1 115.2-4.9 15.8-20.2 30-48.9 45.2-68.7-70.1-111.3-165.9-111.3-271.4z m387.3 387.2c-88.6 0-170.1-30.2-235.4-80.5 25.1-15.6 48.1-36.3 57.2-65.7 12.1-39.1-0.4-84.3-43-156.3-32.7-55.3-28.3-58.1 14.5-85.2 23.7-15 53.1-33.7 82.6-66.7 19.5-21.8 28.5-48.3 26.7-78.6-4.1-70.8-68.8-146.7-105-183.9 39.1-24.1 82.6-41.6 129.2-50.6 9.5 72.4 47.1 260.3 181.4 264.1 2.6 0.1 5.1 0.1 7.6 0.1 110 0 169.9-69.4 196.4-112.3 47 64.1 75.1 142.8 75.1 228.2 0 213.7-173.7 387.4-387.3 387.4z" fill="#1E59E4" p-id="7628"></path><path d="M514.1 826c-19.8 0-35.7-5.4-45.9-15.9-31.7-32.5-6.2-101.8 36.5-163.1-21.6-17.1-48.8-46.6-56.2-90.7-5.1-30.4-1.5-76.2 25.7-105.4 44.1-47.3 141.5-42.5 218.5-16.8 84.1 28.1 137.7 76.3 143.2 128.9 3.1 29.2-9.5 62.5-35.5 94-35.8 43.3-89.6 74.1-143.1 82.5-33.3 54-85.5 79.4-125.1 85.2-6.4 0.8-12.4 1.3-18.1 1.3z m-8.9-52c5.1 1.3 17.7 1.9 34.9-3.4 15.6-4.8 54.6-21 78.6-66.7l6.5-12.4 14-1.2c53.4-4.5 97.9-37 121.7-65.8 16.7-20.2 25.7-41.1 24.1-56.1-3.2-30.7-46.9-65.2-108.6-85.8-69.3-23.2-141.7-21.8-164.9 3.2-12.9 13.9-16.2 41.7-12.7 62.1 7.3 43 46.6 66.2 54.4 70.4l26.8 14.4-18.8 23.9c-46.6 59.1-58.3 104.9-56 117.4z" fill="#FF5A06" p-id="7629"></path></svg>