<?xml version="1.0" standalone="no"?><!DOCTYPE svg PUBLIC "-//W3C//DTD SVG 1.1//EN" "http://www.w3.org/Graphics/SVG/1.1/DTD/svg11.dtd"><svg t="1723971599376" class="icon" viewBox="0 0 1024 1024" version="1.1" xmlns="http://www.w3.org/2000/svg" p-id="86969" xmlns:xlink="http://www.w3.org/1999/xlink" width="200" height="200"><path d="M345.77837419 573.92227097a25.67927742 25.67927742 0 0 1-25.64514408-25.65615484 25.68478279 25.68478279 0 0 1 25.644043-25.65615484h332.43884732a25.67927742 25.67927742 0 0 1 25.65615484 25.65615484 25.67927742 25.67927742 0 0 1-25.65505377 25.65615484H345.77727311z m0-121.84939355a25.67927742 25.67927742 0 0 1-25.65064946-25.65064947 25.67927742 25.67927742 0 0 1 25.65064946-25.65064945h248.99716129a25.67927742 25.67927742 0 0 1 25.64404302 25.64514408 25.67927742 25.67927742 0 0 1-25.64404302 25.65064947l-248.99716129 0.00550537z m0-128.46685592a25.67927742 25.67927742 0 0 1-25.64514408-25.64514408 25.67927742 25.67927742 0 0 1 25.644043-25.64404301h332.43884732a25.67267097 25.67267097 0 0 1 25.64514409 25.64404301 25.67267097 25.67267097 0 0 1-25.64404302 25.64404301H345.77727311z" fill="#2C2C2C" p-id="86970"></path><path d="M253.95420215 926.97655053c-48.11588818 0-87.25691182-39.14652903-87.25691183-87.26241719V182.65737634c0-48.11698924 39.14102366-87.2580129 87.25691183-87.2580129h517.04953119c48.11038279 0 87.2580129 39.14763011 87.2580129 87.26351828v524.90790538a28.78541076 28.78541076 0 0 1-6.17372903 17.75263656L701.63489032 916.04617634a28.50353548 28.50353548 0 0 1-22.51148387 10.93037419h-425.1692043z m-0.00550538-774.21006451a29.95805592 29.95805592 0 0 0-29.87877849 29.8787785v657.06886882a29.95255053 29.95255053 0 0 0 29.87877849 29.88318279h377.81966452V752.51447742c0-48.11148387 39.14212473-87.2580129 87.2580129-87.2580129h81.86164302V182.65737634a29.96356129 29.96356129 0 0 0-29.8831828-29.88538494H253.9475957zM719.02086882 722.63569892a29.94594408 29.94594408 0 0 0-29.87327312 29.86666667v86.75592259l91.99263656-116.62258926h-62.11936344z" fill="#2C2C2C" p-id="86971"></path></svg>