<?xml version="1.0" standalone="no"?><!DOCTYPE svg PUBLIC "-//W3C//DTD SVG 1.1//EN" "http://www.w3.org/Graphics/SVG/1.1/DTD/svg11.dtd"><svg t="1723969105850" class="icon" viewBox="0 0 1024 1024" version="1.1" xmlns="http://www.w3.org/2000/svg" p-id="28850" xmlns:xlink="http://www.w3.org/1999/xlink" width="200" height="200"><path d="M917.017825 364.586867c0-124.162297-108.026338-224.810693-241.282565-224.810693-2.076184 0-4.124039 0.089037-6.179987 0.14165-42.074097-65.867251-119.212641-110.029674-207.456545-110.029674-133.256227 0-241.282565 100.656491-241.282565 224.818788 0 1.610763 0.093084 3.20129 0.129509 4.808006C148.064723 298.197535 98.887889 371.191805 98.887889 454.931238c0 124.162297 108.026338 224.810693 241.282565 224.810693 7.580299 0 15.067513-0.372337 22.469738-1.003691 44.259555 49.953885 111.219534 81.792758 186.168573 81.792758 123.170747 0 224.70142-86.001786 239.384454-197.047293 76.596226-37.674853 128.824605-112.587468 128.824606-198.896838z" fill="#B3EBB5" p-id="28851"></path><path d="M671.688117 131.681888c-2.076184 0-4.124039 0.089037-6.179987 0.14165-33.732936-52.815215-90.024646-91.647551-156.494921-104.974792 52.588575 13.189639 96.896695 45.18635 124.109683 87.782529 1.764554-0.044519 25.946233 41.73009 27.731024 41.730091 114.352022 0 167.539574 61.609656 167.539574 168.158787 0 74.066762-27.73507 121.260495-93.464718 153.59312-12.598756 95.289979-99.733742 169.097724-205.428926 169.097724-64.317195 0-121.77853-27.322262-159.756919-70.189599-6.354014 0.542317-12.77683 0.862041-19.284635 0.862041-114.352022 0-204.170265-54.187196-204.170265-160.73228 0-71.739655 32.105985-107.075259 90.546728-149.68358-1.566244-9.23558-8.057861-90.433408 13.594353-112.081575C301.896624 103.922535 325.208167 59.715593 371.248465 36.853283c-90.352465 32.486416-154.479444 114.125382-154.479445 209.763416 0 1.610763 0.093084 3.20129 0.129509 4.808006C144.01758 290.10325 94.840747 363.097519 94.840747 446.836952c0 124.162297 108.026338 224.810693 241.282564 224.810694 7.580299 0 15.067513-0.372337 22.469738-1.003692 44.259555 49.953885 111.219534 81.792758 186.168573 81.792758 123.170747 0 224.70142-86.001786 239.384455-197.047293 76.596226-37.674853 128.824605-112.583421 128.824605-198.896837 0-124.162297-108.026338-224.810693-241.282565-224.810694z" fill="#97C799" opacity=".51" p-id="28852"></path><path d="M933.206396 364.586867c0-64.592401-26.925642-125.250978-75.823222-170.809665-48.577856-45.263246-113.089314-70.189599-181.647914-70.1896-1.695753 0-3.282233 0.048566-4.808006 0.097132l-1.772648 0.052613 14.047633 7.466978c-46.299315-72.476235-131.018157-117.5007-221.103511-117.500699-141.969725 0-257.471136 108.115375-257.471136 241.007359 0 1.286991 0.044519 2.488993 0.08499 3.549344l0.052613 1.61481 8.596131-14.658751C132.762475 287.990641 82.699318 368.35071 82.699318 454.931238c0 132.887937 115.501411 240.999265 257.471136 240.999265 7.673383 0 15.476274-0.348054 23.845766-1.064399l-13.493174-5.394841c49.12422 55.445858 121.398098 87.248306 198.285719 87.248306 129.71093 0 239.522058-90.761226 255.435423-211.115161l-8.903714 12.400445c85.038566-41.819127 137.865923-123.599744 137.865922-213.417986z m-161.064145 196.772088c-13.792663 104.315108-109.807081 182.983472-223.337534 182.983471-67.627758 0-131.066723-27.824107-174.051427-76.337209l-5.394841-6.086903-8.10238 0.692062a246.106759 246.106759 0 0 1-21.089662 0.942984C216.052676 663.55336 115.076461 569.967228 115.076461 454.931238c0-74.572655 43.474409-143.973061 113.457604-181.117739l8.907761-4.727062-0.31163-9.931689-0.064754-2.080232a66.089843 66.089843 0 0 1-0.060707-2.367578c0-115.040037 100.976215-208.630216 225.093993-208.630216 79.145926 0 153.406951 39.29371 193.813626 102.554601l4.941562 7.730043 9.106071-0.263065 1.962864-0.05666c1.347699-0.040471 2.614454-0.080943 3.812409-0.080943 60.338853 0 117.010995 21.838383 159.578844 61.500384 42.248125 39.366559 65.515149 91.615174 65.515149 147.121738 0 77.385419-45.898648 148.028298-119.783288 184.371642l-7.770514 3.816455-1.1332 8.588038z" fill="#6E6E96" p-id="28853"></path><path d="M328.271854 486.179228c0-0.004047 124.943395 24.452837 124.943396 146.745354 0 0 33.639852 207.683185-96.39485 354.651132h300.261578c-2.97465-4.124039-262.258906-350.518999 26.306429-556.429535-175.990009 100.591737-355.116553 55.033049-355.116553 55.033049z" fill="#DEB895" p-id="28854"></path><path d="M344.460426 486.179228a16.188572 16.188572 0 0 1-5.929065 12.52186 16.083346 16.083346 0 0 1-13.387948 3.363176c4.569224 0.918701 111.883265 23.68388 111.883265 130.860318 0 0.866089 0.068801 1.732177 0.206404 2.590172 0.319724 1.991194 30.693532 202.057656-92.537922 341.336031a16.180477 16.180477 0 1 0 12.12524 26.913501h300.261578a16.188572 16.188572 0 1 0 13.128932-25.666981c-13.51341-18.390217-128.94602-181.202729-103.08073-342.821333 12.141429-75.871788 54.42193-140.120181 125.663787-190.956343a16.188572 16.188572 0 0 0-17.439138-27.233224c-168.361144 96.232964-341.364361 53.839142-343.092492 53.40205a16.188572 16.188572 0 0 1 12.198089 15.690773z m329.526468-68.210546c-78.555044 56.052929-125.26312 127.44453-138.829142 212.191702-27.949569 174.618027 94.626248 347.601009 108.690069 366.748041-3.614099-4.917279-4.059284-11.323906-1.30318-16.77136 2.760151-5.447454 8.434246-8.749923 14.537337-8.749923H356.8204a16.188572 16.188572 0 0 1 12.12524 26.913501c133.579998-150.974618 101.676371-359.175837 100.251777-367.966232 0.137603 0.857994 0.206404 1.724083 0.206404 2.590171 0-55.579413-24.031934-101.429495-69.501585-132.580354-32.757575-22.445454-66.802141-30.353572-71.630382-30.353571a16.188572 16.188572 0 0 0-3.990483 31.875297c7.572204 1.92644 187.53246 45.991732 367.140615-56.668095a16.188572 16.188572 0 0 1-17.435092-27.229177z" fill="#6E6E96" p-id="28855"></path><path d="M600.397695 485.843315s-189.576267 228.586678-43.879123 485.543827h69.987242s-169.907153-252.687414-26.108119-485.543827z" fill="#6E6E96" opacity=".15" p-id="28856"></path><path d="M809.465002 574.730715m-80.942857 0a80.942858 80.942858 0 1 0 161.885715 0 80.942858 80.942858 0 1 0-161.885715 0Z" fill="#FFA8A8" p-id="28857"></path><path d="M469.505 275.242141m-80.942858 0a80.942858 80.942858 0 1 0 161.885715 0 80.942858 80.942858 0 1 0-161.885715 0Z" fill="#FFA8A8" p-id="28858"></path><path d="M277.383079 661.084603m-80.942857 0a80.942858 80.942858 0 1 0 161.885715 0 80.942858 80.942858 0 1 0-161.885715 0Z" fill="#FFA8A8" p-id="28859"></path></svg>