<?xml version="1.0" standalone="no"?><!DOCTYPE svg PUBLIC "-//W3C//DTD SVG 1.1//EN" "http://www.w3.org/Graphics/SVG/1.1/DTD/svg11.dtd"><svg t="1723969335370" class="icon" viewBox="0 0 1024 1024" version="1.1" xmlns="http://www.w3.org/2000/svg" p-id="37561" xmlns:xlink="http://www.w3.org/1999/xlink" width="200" height="200"><path d="M671.530667 628.522667m-228.394667 0a228.394667 228.394667 0 1 0 456.789333 0 228.394667 228.394667 0 1 0-456.789333 0Z" fill="#F9EF00" p-id="37562"></path><path d="M358.656 138.325333A213.802667 213.802667 0 0 0 147.626667 317.866667l-59.946667 369.408a171.050667 171.050667 0 0 0 168.832 198.4h513.962667a171.050667 171.050667 0 0 0 169.344-195.242667l-52.778667-368.64a213.802667 213.802667 0 0 0-211.626667-183.466667H358.656zM232.106667 331.605333a128.298667 128.298667 0 0 1 126.592-107.776h316.757333c63.829333 0 117.930667 46.933333 126.976 110.08l52.736 368.64a85.504 85.504 0 0 1-84.650667 97.621334H256.512a85.504 85.504 0 0 1-84.394667-99.2L232.064 331.52z m179.114666 100.010667a42.752 42.752 0 1 0-85.504 0v7.253333c0 37.205333 12.8 83.541333 42.922667 121.429334 31.317333 39.381333 80.469333 68.266667 147.882667 68.266666 66.261333 0 115.413333-26.368 147.114666-65.578666 30.506667-37.76 42.581333-84.522667 42.581334-124.16v-7.253334a42.752 42.752 0 0 0-85.504 0v7.253334c0 23.850667-7.552 50.56-23.594667 70.4-14.890667 18.389333-39.253333 33.792-80.64 33.792-40.234667 0-65.109333-16.128-80.896-35.968a115.498667 115.498667 0 0 1-24.32-68.224v-7.253334z" fill="#000000" p-id="37563"></path></svg>