<?xml version="1.0" standalone="no"?><!DOCTYPE svg PUBLIC "-//W3C//DTD SVG 1.1//EN" "http://www.w3.org/Graphics/SVG/1.1/DTD/svg11.dtd"><svg t="1723970133126" class="icon" viewBox="0 0 1024 1024" version="1.1" xmlns="http://www.w3.org/2000/svg" p-id="61221" xmlns:xlink="http://www.w3.org/1999/xlink" width="200" height="200"><path d="M320 286.72H373.76v92.16a40.96 40.96 0 1 0 81.92 0.5632V286.72h50.4832A40.96 40.96 0 1 0 506.88 204.8H319.4368a40.96 40.96 0 1 0 0.5632 81.92zM533.504 445.44h196.4544a33.9456 33.9456 0 0 0 33.4848-25.6 33.3312 33.3312 0 0 0-32.4608-40.96H532.48a33.3312 33.3312 0 0 0-32.4608 40.96 33.8944 33.8944 0 0 0 33.4848 25.6zM732.16 506.88H313.2416a33.8944 33.8944 0 0 0-33.4848 25.6 33.3312 33.3312 0 0 0 32.5632 40.96h418.7648a33.8944 33.8944 0 0 0 33.4848-25.6 33.3312 33.3312 0 0 0-32.4096-40.96zM611.584 788.48H313.2416a33.8432 33.8432 0 0 0-33.4848 25.856A33.3312 33.3312 0 0 0 312.32 855.04h298.3424a33.8944 33.8944 0 0 0 33.4848-25.856 33.3312 33.3312 0 0 0-32.5632-40.704zM732.16 650.24H313.2416a33.8944 33.8944 0 0 0-33.4848 25.856A33.3312 33.3312 0 0 0 312.32 716.8h418.7648a33.8944 33.8944 0 0 0 33.4848-25.856A33.3312 33.3312 0 0 0 732.16 650.24z" fill="#353346" p-id="61222"></path><path d="M920.4224 228.7104l-234.9568-204.8a32.9216 32.9216 0 0 0-22.016-8.5504H158.0032A65.8432 65.8432 0 0 0 92.16 81.2032v861.5936A65.8432 65.8432 0 0 0 158.0032 1008.64h707.9936A65.8432 65.8432 0 0 0 931.84 942.7968V253.7472a33.3824 33.3824 0 0 0-11.4176-25.0368zM691.2 115.6096L828.2112 235.52H691.2zM865.28 942.08H163.84V81.92h460.8v155.392A64.768 64.768 0 0 0 689.408 302.08H865.28z" fill="#353346" p-id="61223"></path></svg>