<?xml version="1.0" standalone="no"?><!DOCTYPE svg PUBLIC "-//W3C//DTD SVG 1.1//EN" "http://www.w3.org/Graphics/SVG/1.1/DTD/svg11.dtd"><svg t="1723969361314" class="icon" viewBox="0 0 1024 1024" version="1.1" xmlns="http://www.w3.org/2000/svg" p-id="40435" xmlns:xlink="http://www.w3.org/1999/xlink" width="200" height="200"><path d="M641.142857 681.142857q0 49.142857-9.714286 112.571429-17.714286 122.857143-31.428571 178.857143-12.571429 51.428571-86.857143 51.428571t-86.857143-51.428571q-13.714286-56-31.428571-178.857143-9.714286-62.857143-9.714286-112.571429 0-96 128-96t128 96z m309.714286-242.285714q0 137.142857-76.571429 248t-200 160q-4.571429 1.714286-8.571428-1.714286t-3.428572-8.571428q4-27.428571 5.714286-37.714286 2.285714-18.285714 3.428571-26.857143 0.571429-5.142857 5.142858-6.857143 90.857143-46.285714 146-133.714286t55.142857-192.571428q0-102.857143-52-188.857143T684.571429 116t-192.571429-42.285714q-70.857143 4-135.428571 34.857143T246 188.857143t-73.142857 115.428571T146.285714 441.714286q0.571429 105.142857 56.571429 192.285714T349.714286 766.285714q4 1.714286 5.142857 6.857143 1.714286 12 3.428571 25.714286 0.571429 5.142857 2.857143 18.571428t3.428572 20.285715q0.571429 5.142857-3.714286 8.571428t-8.857143 1.142857q-84.571429-33.142857-149.142857-96.857142t-99.142857-150.857143T73.714286 417.142857q4-81.714286 37.714285-156.285714t88.285715-129.714286T328.285714 41.142857 484 1.142857q93.714286-5.714286 180.285714 26.571429t149.142857 91.714285 100 143.142858T950.857143 438.857143z m-309.714286-18.285714q0 53.142857-37.428571 90.571428T513.142857 548.571429t-90.571428-37.428572T385.142857 420.571429t37.428572-90.571429T513.142857 292.571429t90.571429 37.428571T641.142857 420.571429z m164.571429 18.285714q0 69.714286-30.571429 130.571428T691.428571 670.857143q-4.571429 3.428571-9.142857 1.142857t-5.714285-8q-3.428571-29.714286-16.571429-52.571429-4-5.714286 1.714286-11.428571 33.142857-30.857143 52-72.571429t18.857143-88.571428q0-63.428571-33.428572-116.571429T609.142857 241.428571 488 220.571429q-76 8.571429-130.857143 64.571428T294.857143 417.142857q-5.714286 52.571429 13.428571 100.571429t56.285715 82.285714q5.714286 5.714286 1.714285 11.428571-13.714286 23.428571-16.571428 53.142858-1.142857 5.142857-5.714286 7.428571t-9.142857-1.142857q-54.285714-42.285714-84.857143-104.571429T220.571429 432.571429q1.714286-74.857143 39.428571-139.428572t101.142857-103.714286T498.857143 146.857143q82.285714-4 153.142857 34.285714t112.285714 107.142857T805.714286 438.857143z" p-id="40436"></path></svg>