<?xml version="1.0" standalone="no"?><!DOCTYPE svg PUBLIC "-//W3C//DTD SVG 1.1//EN" "http://www.w3.org/Graphics/SVG/1.1/DTD/svg11.dtd"><svg t="1723969284973" class="icon" viewBox="0 0 1024 1024" version="1.1" xmlns="http://www.w3.org/2000/svg" p-id="31280" xmlns:xlink="http://www.w3.org/1999/xlink" width="200" height="200"><path d="M768 930.133333H256c-72.533333 0-128-55.466667-128-128V221.866667c0-72.533333 55.466667-128 128-128h512c72.533333 0 128 55.466667 128 128v580.266666c0 72.533333-55.466667 128-128 128zM256 179.2c-25.6 0-42.666667 17.066667-42.666667 42.666667v580.266666c0 25.6 17.066667 42.666667 42.666667 42.666667h512c25.6 0 42.666667-17.066667 42.666667-42.666667V221.866667c0-25.6-17.066667-42.666667-42.666667-42.666667H256z" p-id="31281"></path><path d="M597.333333 384h-128c-25.6 0-42.666667-17.066667-42.666666-42.666667s17.066667-42.666667 42.666666-42.666666h128c25.6 0 42.666667 17.066667 42.666667 42.666666s-17.066667 42.666667-42.666667 42.666667zM682.666667 554.666667h-213.333334c-25.6 0-42.666667-17.066667-42.666666-42.666667s17.066667-42.666667 42.666666-42.666667h213.333334c25.6 0 42.666667 17.066667 42.666666 42.666667s-17.066667 42.666667-42.666666 42.666667zM554.666667 725.333333h-85.333334c-25.6 0-42.666667-17.066667-42.666666-42.666666s17.066667-42.666667 42.666666-42.666667h85.333334c25.6 0 42.666667 17.066667 42.666666 42.666667s-17.066667 42.666667-42.666666 42.666666z" p-id="31282"></path><path d="M341.333333 341.333333m-42.666666 0a42.666667 42.666667 0 1 0 85.333333 0 42.666667 42.666667 0 1 0-85.333333 0Z" p-id="31283"></path><path d="M341.333333 512m-42.666666 0a42.666667 42.666667 0 1 0 85.333333 0 42.666667 42.666667 0 1 0-85.333333 0Z" p-id="31284"></path><path d="M341.333333 682.666667m-42.666666 0a42.666667 42.666667 0 1 0 85.333333 0 42.666667 42.666667 0 1 0-85.333333 0Z" p-id="31285"></path></svg>