<?xml version="1.0" standalone="no"?><!DOCTYPE svg PUBLIC "-//W3C//DTD SVG 1.1//EN" "http://www.w3.org/Graphics/SVG/1.1/DTD/svg11.dtd"><svg t="1723969440650" class="icon" viewBox="0 0 1024 1024" version="1.1" xmlns="http://www.w3.org/2000/svg" p-id="46451" xmlns:xlink="http://www.w3.org/1999/xlink" width="200" height="200"><path d="M864 992H160c-70.69 0-128-57.31-128-128V160C32 89.31 89.31 32 160 32h704c70.69 0 128 57.31 128 128v704c0 70.69-57.31 128-128 128z" fill="#FFEBEB" p-id="46452"></path><path d="M776 832H248c-35.35 0-64-28.65-64-64V432c0-35.35 28.65-64 64-64h528c35.35 0 64 28.65 64 64v336c0 35.35-28.65 64-64 64z" fill="#FFFFFF" p-id="46453"></path><path d="M800 856H224c-48.52 0-88-39.48-88-88V384c0-48.52 39.48-88 88-88h576c48.52 0 88 39.48 88 88v384c0 48.52-39.48 88-88 88zM224 344c-22.06 0-40 17.94-40 40v384c0 22.06 17.94 40 40 40h576c22.06 0 40-17.94 40-40V384c0-22.06-17.94-40-40-40H224z" fill="#1F4CA4" p-id="46454"></path><path d="M728 344H296v-88c0-48.52 39.48-88 88-88h256c48.52 0 88 39.48 88 88v88z m-384-48h336v-40c0-22.06-17.94-40-40-40H384c-22.06 0-40 17.94-40 40v40zM864 492H703.99v40H864v-40zM319.94 492H160v40h159.94v-40z" fill="#1F4CA4" p-id="46455"></path><path d="M680 576H344c-13.25 0-24-10.75-24-24v-80c0-13.25 10.75-24 24-24h336c13.25 0 24 10.75 24 24v80c0 13.25-10.75 24-24 24z" fill="#FFB9B3" p-id="46456"></path><path d="M680 596H344c-24.26 0-44-19.74-44-44v-80c0-24.26 19.74-44 44-44h336c24.26 0 44 19.74 44 44v80c0 24.26-19.74 44-44 44zM344 468c-2.21 0-4 1.79-4 4v80c0 2.21 1.79 4 4 4h336c2.21 0 4-1.79 4-4v-80c0-2.21-1.79-4-4-4H344z" fill="#1F4CA4" p-id="46457"></path></svg>