<svg t="1723969044201" class="icon" viewBox="0 0 1024 1024" version="1.1" xmlns="http://www.w3.org/2000/svg" p-id="15492" xmlns:xlink="http://www.w3.org/1999/xlink" width="16px" height="16px" fill="currentColor"><path d="M0 768a109.714286 109.714286 0 0 0 109.714286 109.714286h209.188571l-18.285714 73.142857H182.857143a36.571429 36.571429 0 0 0 0 73.142857h658.285714a36.571429 36.571429 0 0 0 0-73.142857h-136.045714l-18.285714-73.142857H914.285714a109.714286 109.714286 0 0 0 109.714286-109.714286V402.285714a36.571429 36.571429 0 0 0-73.142857 0v365.714286a36.571429 36.571429 0 0 1-36.571429 36.571429H109.714286a36.571429 36.571429 0 0 1-36.571429-36.571429V109.714286a36.571429 36.571429 0 0 1 36.571429-36.571429h804.571428a36.571429 36.571429 0 0 1 36.571429 36.571429v73.142857a36.571429 36.571429 0 0 0 73.142857 0V109.714286a109.714286 109.714286 0 0 0-109.714286-109.714286H109.714286a109.714286 109.714286 0 0 0-109.714286 109.714286z m611.474286 109.714286l18.285714 73.142857H375.954286l18.285714-73.142857z" fill="#211B13" p-id="15493"></path><path d="M182.857143 585.142857a36.571429 36.571429 0 0 0 0 73.142857h658.285714a36.571429 36.571429 0 0 0 0-73.142857z" fill="#FFB243" p-id="15494"></path></svg>